#N canvas -1928 960 1920 989 10;
#X floatatom 19 152 5 0 0 0 Osc_1_Pitch - -, f 5;
#X floatatom 140 136 5 0 0 0 Osc_1_Sine_Amp - -, f 5;
#X obj 69 267 *~ 1;
#X obj 183 262 *~ 1;
#X floatatom 348 162 5 0 0 0 Osc_1_Square_Amp - -, f 5;
#X obj 126 316 *~ 1;
#X obj 8 13 vsl 15 128 0 127 0 0 empty osc_sine_pitch empty 0 -9 0
10 -262144 -1 -1 0 1;
#X obj 138 -5 vsl 15 128 0 1 0 0 empty osc_sine_amp empty 0 -9 0 10
-262144 -1 -1 0 1;
#X obj 352 0 vsl 15 128 0 1 0 0 empty osc_square_amp empty 0 -9 0 10
-262144 -1 -1 4064 1;
#X floatatom 309 141 5 0 0 0 Osc_1_Pitch_2 - -, f 5;
#X obj 242 6 vsl 15 128 0 127 0 0 empty osc_square_pitch empty 0 -9
0 10 -262144 -1 -1 4517 1;
#X obj 149 395 *~ 1;
#X floatatom 344 502 6 0 0 0 LowPass_Filter_cutoff - -, f 6;
#X obj 345 331 vsl 15 128 0 127 0 0 empty lp_co empty 0 -9 0 10 -262144
-1 -1 8500 1;
#X obj 152 521 lop~;
#X obj 455 533 bp~, f 10;
#X floatatom 361 620 5 0 0 0 LP_MIX_1 - -, f 5;
#X floatatom 536 634 5 0 0 0 BP_MIX_1 - -, f 5;
#X obj 287 580 hsl 128 15 0 1 0 0 empty lp_mix empty -2 -8 0 10 -262144
-1 -1 12700 1;
#X obj 540 601 hsl 128 15 0 1 0 0 empty bp_mix empty -2 -8 0 10 -262144
-1 -1 0 1;
#X obj 323 651 *~ 1;
#X obj 411 653 *~ 1;
#X floatatom 482 480 5 0 0 0 BP_Positon - -, f 5;
#X floatatom 581 481 5 0 0 0 BP__Width - -, f 5;
#X obj 482 288 vsl 15 128 0 127 0 0 empty bp_pos empty 0 -9 0 10 -262144
-1 -1 0 1;
#X obj 583 294 vsl 15 128 1 10 0 0 empty bp_width empty 0 -9 0 10 -262144
-1 -1 0 1;
#X obj 529 661 vsl 15 128 0 5 0 0 empty master_vol empty 0 -9 0 10
-262144 -1 -1 2540 1;
#X floatatom 526 825 5 0 0 0 master_volume - -, f 5;
#X obj 394 856 *~ 1;
#X obj 750 692 dac~;
#X floatatom 400 206 5 0 1 0 gate gate -, f 5;
#X obj 244 317 line;
#X floatatom 445 240 5 0 500 0 Line_Arg ar_time -, f 5;
#X obj 343 279 pack;
#X obj 1266 36 unpackOSC;
#X obj 1714 130 send osc_sine_amp;
#X obj 1540 136 send osc_sine_pitch;
#X obj 1140 415 send lp_co;
#X obj 1489 410 send bp_pos;
#X obj 1391 417 send bp_width;
#X obj 1214 416 send lp_mix;
#X obj 1307 417 send bp_mix;
#X obj 177 196 phasor~;
#X obj 842 307 *~ 0.6;
#X floatatom 938 283 5 0 0 0 - - -, f 5;
#X obj 693 128 vsl 15 128 0 0.7 0 0 empty delay_amp delay_value 0 -9
0 10 -262144 -1 -1 5261 1;
#X obj 1715 218 send delay_amp;
#X obj 53 184 phasor~;
#X obj 1266 9 mrpeach/udpreceive 3333;
#X obj 1714 109 routeOSC /osc_sine_amp;
#X obj 1540 114 routeOSC /osc_sine_pitch;
#X obj 1706 25 routeOSC /osc_square_pitch;
#X obj 1706 52 send osc_square_pitch;
#X obj 1542 25 routeOSC /osc_square_amp;
#X obj 1542 53 send osc_square_amp;
#X obj 1266 63 send OSCMSG;
#X obj 1714 79 receive OSCMSG;
#X obj 1540 90 receive OSCMSG;
#X obj 1542 -5 receive OSCMSG;
#X obj 1541 167 receive OSCMSG;
#X obj 1706 -3 receive OSCMSG;
#X obj 1256 185 receive OSCMSG;
#X obj 1714 164 receive OSCMSG;
#X obj 1715 195 routeOSC /delay_amp;
#X obj 1541 198 routeOSC /master_vol;
#X obj 1541 227 send master_vol;
#X obj 1256 246 send gate;
#X obj 1256 216 routeOSC /gate;
#X obj 1247 326 receive OSCMSG;
#X obj 1122 188 receive OSCMSG;
#X obj 1123 216 routeOSC /ar_time;
#X obj 1123 250 send ar_time;
#X obj 1334 361 routeOSC /lp_co /lp_mix /bp_mix /bp_width /bp_pos;
#X obj 482 442 mtof;
#X obj 343 476 mtof;
#X obj 186 164 mtof;
#X obj 65 163 mtof;
#X obj 32 226 expr~ $v1 > 0.5;
#X obj 138 224 expr~ $v1 > 0.5;
#X obj 964 90 *~ 1;
#X obj 964 54 *~ 1;
#X obj 954 -10 receive~ delay;
#X obj 968 134 send~ afterdelay;
#X obj 840 648 receive~ afterdelay;
#X obj 874 472 send~ delay;
#X obj 1188 776 send~ toeffects;
#X obj 843 373 receive~ toeffects;
#X obj 739 158 delwrite~ delay1 400;
#X obj 749 222 delread~ delay1 200;
#X obj 1119 472 r~ wah;
#X obj 1689 1097 vcf~;
#X obj 1713 1026 +~ 200;
#X obj 1707 993 *~ 1500;
#X obj 1725 947 *~ 0.5;
#X obj 1724 922 +~ 1;
#X obj 1721 897 osc~ 2;
#X obj 1733 850 hsl 128 15 0 127 0 0 empty empty empty -2 -8 0 10 -262144
-1 -1 600 1;
#X obj 1807 977 bang;
#X obj 1793 1034 hsl 128 15 0 1000 0 0 empty empty empty -2 -8 0 10
-262144 -1 -1 7200 1;
#X obj 1816 1008 -;
#X obj 1898 969 hsl 128 15 0 5000 0 0 empty empty empty -2 -8 0 10
-262144 -1 -1 5100 1;
#X obj 1729 1097 vsl 15 128 0 15 0 0 empty empty empty 0 -9 0 10 -262144
-1 -1 2000 1;
#X obj 1805 1097 loadbang;
#X obj 1688 1168 *~ 4;
#X obj 997 737 delwrite~ \$0-delay 1000;
#X obj 1206 532 osc~ 0.05;
#X obj 1205 559 *~ 10;
#X obj 1210 586 +~ 11;
#X obj 1210 615 vd~ \$0-delay;
#X obj 1147 582 *~ 1;
#X obj 1290 557 *~ 10;
#X obj 1295 613 vd~ \$0-delay;
#X obj 1295 584 +~ 21;
#X obj 1291 530 osc~ 0.08;
#X obj 1378 554 *~ 10;
#X obj 1383 610 vd~ \$0-delay;
#X obj 1463 552 *~ 10;
#X obj 1468 608 vd~ \$0-delay;
#X obj 1379 527 osc~ 0.13;
#X obj 1464 525 osc~ 0.21;
#X obj 1383 581 +~ 13;
#X obj 1468 579 +~ 34;
#X obj 1555 544 *~ 10;
#X obj 1560 600 vd~ \$0-delay;
#X obj 1643 618 vd~ \$0-delay;
#X obj 1733 595 vd~ \$0-delay;
#X obj 1557 527 osc~ 0.03;
#X obj 1650 525 osc~ 0.015;
#X obj 1727 522 osc~ 0.12;
#X obj 1733 566 +~ 67;
#X obj 1728 539 *~ 5;
#X obj 1640 542 *~ 15;
#X obj 1645 569 +~ 87;
#X obj 1560 571 +~ 55;
#X obj 388 897 s~ wah;
#X obj 1033 377 vsl 15 128 0 1 0 0 empty chrous_wet wet_chorus 0 -9
0 10 -262144 -1 -1 12700 1;
#X floatatom 1063 526 5 0 0 0 - - -, f 5;
#X floatatom 973 613 5 0 0 0 dry - -, f 5;
#X obj 1028 608 - 1;
#X obj 1093 581 *~ 1;
#X obj 981 565 * -1;
#X obj 1277 683 /~ 8;
#X obj 1381 185 receive OSCMSG;
#X obj 1388 217 routeOSC /chrous_wet;
#X obj 1382 247 send chrous_wet;
#X obj -276 280 *~ 1;
#X floatatom -111 180 5 0 0 0 Osc_1_Square_Amp - -, f 5;
#X obj -107 18 vsl 15 128 0 1 0 0 empty osc_3_amp empty 0 -9 0 10 -262144
-1 -1 4064 1;
#X floatatom -150 159 5 0 0 0 Osc_1_Pitch_2 - -, f 5;
#X obj -217 24 vsl 15 128 0 127 0 0 empty osc_3_pitch empty 0 -9 0
10 -262144 -1 -1 4517 1;
#X obj -282 214 phasor~;
#X obj -273 182 mtof;
#X obj -321 242 expr~ $v1 > 0.5;
#X obj 1661 264 receive OSCMSG;
#X obj 1825 266 receive OSCMSG;
#X obj 1661 294 routeOSC /osc_3_amp;
#X obj 1825 294 routeOSC /osc_3_pitch;
#X obj 1825 321 send osc_3_pitch;
#X obj 1661 322 send osc_3_amp;
#X connect 0 0 76 0;
#X connect 1 0 2 1;
#X connect 2 0 5 0;
#X connect 3 0 5 0;
#X connect 4 0 3 1;
#X connect 5 0 11 0;
#X connect 6 0 0 0;
#X connect 7 0 1 0;
#X connect 8 0 4 0;
#X connect 9 0 75 0;
#X connect 10 0 9 0;
#X connect 11 0 14 0;
#X connect 11 0 15 0;
#X connect 12 0 14 1;
#X connect 13 0 74 0;
#X connect 14 0 20 0;
#X connect 15 0 21 0;
#X connect 16 0 20 1;
#X connect 17 0 21 1;
#X connect 18 0 16 0;
#X connect 19 0 17 0;
#X connect 20 0 28 0;
#X connect 21 0 28 0;
#X connect 22 0 15 1;
#X connect 23 0 15 2;
#X connect 24 0 73 0;
#X connect 25 0 23 0;
#X connect 26 0 27 0;
#X connect 27 0 28 1;
#X connect 28 0 134 0;
#X connect 30 0 33 0;
#X connect 31 0 5 1;
#X connect 32 0 33 1;
#X connect 33 0 31 0;
#X connect 34 0 55 0;
#X connect 42 0 78 0;
#X connect 43 0 79 0;
#X connect 43 0 87 0;
#X connect 44 0 43 1;
#X connect 45 0 44 0;
#X connect 47 0 77 0;
#X connect 48 0 34 0;
#X connect 49 0 35 0;
#X connect 50 0 36 0;
#X connect 51 0 52 0;
#X connect 53 0 54 0;
#X connect 56 0 49 0;
#X connect 57 0 50 0;
#X connect 58 0 53 0;
#X connect 59 0 64 0;
#X connect 60 0 51 0;
#X connect 61 0 67 0;
#X connect 62 0 63 0;
#X connect 63 0 46 0;
#X connect 64 0 65 0;
#X connect 67 0 66 0;
#X connect 68 0 72 0;
#X connect 69 0 70 0;
#X connect 70 0 71 0;
#X connect 72 0 37 0;
#X connect 72 1 40 0;
#X connect 72 2 41 0;
#X connect 72 3 39 0;
#X connect 72 4 38 0;
#X connect 73 0 22 0;
#X connect 74 0 12 0;
#X connect 75 0 42 0;
#X connect 76 0 47 0;
#X connect 77 0 2 0;
#X connect 78 0 3 0;
#X connect 79 0 82 0;
#X connect 80 0 79 0;
#X connect 80 0 87 0;
#X connect 81 0 80 0;
#X connect 83 0 29 0;
#X connect 83 0 29 1;
#X connect 86 0 84 0;
#X connect 86 0 29 0;
#X connect 86 0 29 1;
#X connect 88 0 43 0;
#X connect 89 0 109 0;
#X connect 89 0 139 0;
#X connect 90 0 103 0;
#X connect 91 0 90 1;
#X connect 92 0 91 0;
#X connect 93 0 92 0;
#X connect 94 0 93 0;
#X connect 95 0 94 0;
#X connect 96 0 95 1;
#X connect 96 0 95 0;
#X connect 98 0 99 1;
#X connect 98 0 91 1;
#X connect 98 0 97 0;
#X connect 99 0 92 1;
#X connect 100 0 99 0;
#X connect 101 0 90 2;
#X connect 102 0 101 0;
#X connect 105 0 106 0;
#X connect 106 0 107 0;
#X connect 107 0 108 0;
#X connect 108 0 141 0;
#X connect 109 0 104 0;
#X connect 109 0 85 0;
#X connect 110 0 112 0;
#X connect 111 0 141 0;
#X connect 112 0 111 0;
#X connect 113 0 110 0;
#X connect 114 0 120 0;
#X connect 115 0 141 0;
#X connect 116 0 121 0;
#X connect 117 0 141 0;
#X connect 118 0 114 0;
#X connect 119 0 116 0;
#X connect 120 0 115 0;
#X connect 121 0 117 0;
#X connect 122 0 133 0;
#X connect 123 0 141 0;
#X connect 124 0 141 0;
#X connect 125 0 141 0;
#X connect 126 0 122 0;
#X connect 127 0 131 0;
#X connect 128 0 130 0;
#X connect 129 0 125 0;
#X connect 130 0 129 0;
#X connect 131 0 132 0;
#X connect 132 0 124 0;
#X connect 133 0 123 0;
#X connect 135 0 136 0;
#X connect 136 0 138 0;
#X connect 136 0 109 1;
#X connect 137 0 139 1;
#X connect 138 0 140 0;
#X connect 139 0 85 0;
#X connect 140 0 137 0;
#X connect 141 0 85 0;
#X connect 142 0 143 0;
#X connect 143 0 144 0;
#X connect 145 0 5 0;
#X connect 146 0 145 1;
#X connect 147 0 146 0;
#X connect 148 0 151 0;
#X connect 149 0 148 0;
#X connect 150 0 152 0;
#X connect 151 0 150 0;
#X connect 152 0 145 0;
#X connect 153 0 155 0;
#X connect 154 0 156 0;
#X connect 155 0 158 0;
#X connect 156 0 157 0;
