#N canvas -1928 960 1920 989 10;
#X floatatom 74 162 5 0 0 0 Osc_1_Pitch - -, f 5;
#X floatatom 140 136 5 0 0 0 Osc_1_Sine_Amp - -, f 5;
#X obj 67 232 *~ 1;
#X obj 174 237 *~ 1;
#X floatatom 348 162 5 0 0 0 Osc_1_Square_Amp - -, f 5;
#X obj 126 316 *~ 1;
#X obj 8 13 vsl 15 128 0 127 0 0 empty osc_sine_pitch empty 0 -9 0
10 -262144 -1 -1 12670 1;
#X obj 138 -5 vsl 15 128 0 1 0 0 empty osc_sine_amp empty 0 -9 0 10
-262144 -1 -1 7620 1;
#X obj 352 0 vsl 15 128 0 1 0 0 empty osc_square_amp empty 0 -9 0 10
-262144 -1 -1 12700 1;
#X floatatom 309 141 5 0 0 0 Osc_1_Pitch_2 - -, f 5;
#X obj 242 6 vsl 15 128 0 127 0 0 empty osc_square_pitch empty 0 -9
0 10 -262144 -1 -1 1319 1;
#X obj 149 395 *~ 1;
#X floatatom 140 672 5 0 0 0 LowPass_Filter_cutoff - -, f 5;
#X obj 94 503 vsl 15 128 0 2000 0 0 empty lp_co empty 0 -9 0 10 -262144
-1 -1 2699 1;
#X obj 202 760 lop~;
#X obj 311 759 hip~;
#X obj 477 757 bp~, f 10;
#X floatatom 449 551 5 0 0 0 HighPass_Filter_cutoff - -, f 5;
#X obj 403 382 vsl 15 128 0 2000 0 0 empty hp_co empty 0 -9 0 10 -262144
-1 -1 7934 1;
#X floatatom 122 902 5 0 0 0 HP_MIX_1 - -, f 5;
#X floatatom 121 855 5 0 0 0 LP_MIX_1 - -, f 5;
#X floatatom 140 958 5 0 0 0 BP_MIX_1 - -, f 5;
#X obj 33 836 hsl 128 15 0 1 0 0 empty lp_mix empty -2 -8 0 10 -262144
-1 -1 0 1;
#X obj 31 878 hsl 128 15 0 1 0 0 empty hp_mix empty -2 -8 0 10 -262144
-1 -1 0 1;
#X obj 28 928 hsl 128 15 0 1 0 0 empty bp_mix empty -2 -8 0 10 -262144
-1 -1 11811 1;
#X obj 231 860 *~ 1;
#X obj 429 854 *~ 1;
#X obj 325 868 *~ 1;
#X floatatom 536 675 5 0 0 0 BP_Positon - -, f 5;
#X floatatom 642 673 5 0 0 0 BP__Width - -, f 5;
#X obj 535 458 vsl 15 128 0 2000 0 0 empty bp_pos empty 0 -9 0 10 -262144
-1 -1 1486 1;
#X obj 629 459 vsl 15 128 1 127 0 0 empty bp_width empty 0 -9 0 10
-262144 -1 -1 3729 1;
#X obj 571 868 vsl 15 128 0 5 0 0 empty master_vol empty 0 -9 0 10
-262144 -1 -1 5588 1;
#X floatatom 567 1061 5 0 0 0 master_volume - -, f 5;
#X obj 380 1030 *~ 1;
#X obj 382 1098 dac~;
#X floatatom 494 163 5 0 1 0 gate gate -, f 5;
#X obj 384 317 line;
#X floatatom 612 183 5 0 500 0 Line_Arg ar_time -, f 5;
#X obj 437 236 pack;
#X obj 1266 36 unpackOSC;
#X obj 1714 130 send osc_sine_amp;
#X obj 1540 136 send osc_sine_pitch;
#X obj 1293 416 send hp_co;
#X obj 1140 415 send lp_co;
#X obj 1624 416 send bp_pos;
#X obj 1527 416 send bp_width;
#X obj 1214 416 send lp_mix;
#X obj 1365 416 send hp_mix;
#X obj 1443 416 send bp_mix;
#X obj 177 196 phasor~;
#X obj 184 1150 delread~ delay1 150;
#X obj 277 1235 *~ 0.6;
#X obj 183 1089 delwrite~ delay1 300;
#X floatatom 373 1211 5 0 0 0 - - -, f 5;
#X obj 495 1172 vsl 15 128 0 0.5 0 0 empty delay_amp delay_value 0
-9 0 10 -262144 -1 -1 7700 1;
#X obj 1715 218 send delay_amp;
#X obj 70 189 phasor~;
#X obj 1266 9 mrpeach/udpreceive 3333;
#X obj 1714 109 routeOSC /osc_sine_amp;
#X obj 1540 114 routeOSC /osc_sine_pitch;
#X obj 1706 25 routeOSC /osc_square_pitch;
#X obj 1706 52 send osc_square_pitch;
#X obj 1542 25 routeOSC /osc_square_amp;
#X obj 1542 53 send osc_square_amp;
#X obj 1266 63 send OSCMSG;
#X obj 1714 79 receive OSCMSG;
#X obj 1540 90 receive OSCMSG;
#X obj 1542 -5 receive OSCMSG;
#X obj 1541 167 receive OSCMSG;
#X obj 1706 -3 receive OSCMSG;
#X obj 1256 185 receive OSCMSG;
#X obj 1714 164 receive OSCMSG;
#X obj 1715 195 routeOSC /delay_amp;
#X obj 1541 198 routeOSC /master_vol;
#X obj 1541 227 send master_vol;
#X obj 1256 246 send gate;
#X obj 1256 216 routeOSC /gate;
#X obj 1247 326 receive OSCMSG;
#X obj 1334 361 routeOSC /lp_co /lp_mix /hp_co /hp_mix /bp_mix /bp_width
/bp_pos;
#X connect 0 0 57 0;
#X connect 1 0 2 1;
#X connect 2 0 5 0;
#X connect 3 0 5 0;
#X connect 4 0 3 1;
#X connect 5 0 11 0;
#X connect 6 0 0 0;
#X connect 7 0 1 0;
#X connect 8 0 4 0;
#X connect 9 0 50 0;
#X connect 10 0 9 0;
#X connect 11 0 14 0;
#X connect 11 0 15 0;
#X connect 11 0 16 0;
#X connect 12 0 14 1;
#X connect 13 0 12 0;
#X connect 14 0 25 0;
#X connect 15 0 27 0;
#X connect 16 0 26 0;
#X connect 17 0 15 1;
#X connect 18 0 17 0;
#X connect 19 0 27 1;
#X connect 20 0 25 1;
#X connect 21 0 26 1;
#X connect 22 0 20 0;
#X connect 23 0 19 0;
#X connect 24 0 21 0;
#X connect 25 0 34 0;
#X connect 26 0 34 0;
#X connect 27 0 34 0;
#X connect 28 0 16 1;
#X connect 29 0 16 2;
#X connect 30 0 28 0;
#X connect 31 0 29 0;
#X connect 32 0 33 0;
#X connect 33 0 34 1;
#X connect 34 0 35 0;
#X connect 34 0 35 1;
#X connect 34 0 53 0;
#X connect 36 0 39 0;
#X connect 37 0 5 1;
#X connect 38 0 39 1;
#X connect 39 0 37 0;
#X connect 40 0 65 0;
#X connect 50 0 3 0;
#X connect 51 0 52 0;
#X connect 51 0 35 0;
#X connect 51 0 35 1;
#X connect 52 0 53 0;
#X connect 54 0 52 1;
#X connect 55 0 54 0;
#X connect 57 0 2 0;
#X connect 58 0 40 0;
#X connect 59 0 41 0;
#X connect 60 0 42 0;
#X connect 61 0 62 0;
#X connect 63 0 64 0;
#X connect 66 0 59 0;
#X connect 67 0 60 0;
#X connect 68 0 63 0;
#X connect 69 0 74 0;
#X connect 70 0 61 0;
#X connect 71 0 77 0;
#X connect 72 0 73 0;
#X connect 73 0 56 0;
#X connect 74 0 75 0;
#X connect 77 0 76 0;
#X connect 78 0 79 0;
#X connect 79 0 44 0;
#X connect 79 1 47 0;
#X connect 79 2 43 0;
#X connect 79 3 48 0;
#X connect 79 4 49 0;
#X connect 79 5 46 0;
#X connect 79 6 45 0;
