#N canvas -1928 960 1920 989 10;
#X floatatom 19 152 5 0 0 0 Osc_1_Pitch - -, f 5;
#X floatatom 140 136 5 0 0 0 Osc_1_Sine_Amp - -, f 5;
#X obj 69 267 *~ 1;
#X obj 183 262 *~ 1;
#X floatatom 348 162 5 0 0 0 Osc_1_Square_Amp - -, f 5;
#X obj 126 316 *~ 1;
#X obj 8 13 vsl 15 128 0 127 0 0 empty osc_sine_pitch empty 0 -9 0
10 -262144 -1 -1 2318 1;
#X obj 138 -5 vsl 15 128 0 1 0 0 empty osc_sine_amp empty 0 -9 0 10
-262144 -1 -1 3429 1;
#X obj 352 0 vsl 15 128 0 1 0 0 empty osc_square_amp empty 0 -9 0 10
-262144 -1 -1 6350 1;
#X floatatom 309 141 5 0 0 0 Osc_1_Pitch_2 - -, f 5;
#X obj 242 6 vsl 15 128 0 127 0 0 empty osc_square_pitch empty 0 -9
0 10 -262144 -1 -1 4740 1;
#X obj 149 395 *~ 1;
#X floatatom 140 672 6 0 0 0 LowPass_Filter_cutoff - -, f 6;
#X obj 89 442 vsl 15 128 0 127 0 0 empty lp_co empty 0 -9 0 10 -262144
-1 -1 0 1;
#X obj 202 760 lop~;
#X obj 477 757 bp~, f 10;
#X floatatom 121 855 5 0 0 0 LP_MIX_1 - -, f 5;
#X floatatom 140 958 5 0 0 0 BP_MIX_1 - -, f 5;
#X obj 33 836 hsl 128 15 0 1 0 0 empty lp_mix empty -2 -8 0 10 -262144
-1 -1 0 1;
#X obj 32 917 hsl 128 15 0 1 0 0 empty bp_mix empty -2 -8 0 10 -262144
-1 -1 12700 1;
#X obj 231 860 *~ 1;
#X obj 429 854 *~ 1;
#X floatatom 536 675 5 0 0 0 BP_Positon - -, f 5;
#X floatatom 642 673 5 0 0 0 BP__Width - -, f 5;
#X obj 534 400 vsl 15 128 0 127 0 0 empty bp_pos empty 0 -9 0 10 -262144
-1 -1 4300 1;
#X obj 629 459 vsl 15 128 1 10 0 0 empty bp_width empty 0 -9 0 10 -262144
-1 -1 4939 1;
#X obj 571 868 vsl 15 128 0 5 0 0 empty master_vol empty 0 -9 0 10
-262144 -1 -1 1016 1;
#X floatatom 567 1061 5 0 0 0 master_volume - -, f 5;
#X obj 388 1013 *~ 1;
#X obj 844 1243 dac~;
#X floatatom 494 163 5 0 1 0 gate gate -, f 5;
#X obj 384 317 line;
#X floatatom 612 183 5 0 500 0 Line_Arg ar_time -, f 5;
#X obj 437 236 pack;
#X obj 1266 36 unpackOSC;
#X obj 1714 130 send osc_sine_amp;
#X obj 1540 136 send osc_sine_pitch;
#X obj 1140 415 send lp_co;
#X obj 1488 417 send bp_pos;
#X obj 1391 417 send bp_width;
#X obj 1214 416 send lp_mix;
#X obj 1307 417 send bp_mix;
#X obj 177 196 phasor~;
#X obj 68 1402 delread~ delay1 150;
#X obj 161 1487 *~ 0.6;
#X obj 58 1338 delwrite~ delay1 300;
#X floatatom 257 1463 5 0 0 0 - - -, f 5;
#X obj 12 1308 vsl 15 128 0 0.5 0 0 empty delay_amp delay_value 0 -9
0 10 -262144 -1 -1 0 1;
#X obj 1715 218 send delay_amp;
#X obj 53 184 phasor~;
#X obj 1266 9 mrpeach/udpreceive 3333;
#X obj 1714 109 routeOSC /osc_sine_amp;
#X obj 1540 114 routeOSC /osc_sine_pitch;
#X obj 1706 25 routeOSC /osc_square_pitch;
#X obj 1706 52 send osc_square_pitch;
#X obj 1542 25 routeOSC /osc_square_amp;
#X obj 1542 53 send osc_square_amp;
#X obj 1266 63 send OSCMSG;
#X obj 1714 79 receive OSCMSG;
#X obj 1540 90 receive OSCMSG;
#X obj 1542 -5 receive OSCMSG;
#X obj 1541 167 receive OSCMSG;
#X obj 1706 -3 receive OSCMSG;
#X obj 1256 185 receive OSCMSG;
#X obj 1714 164 receive OSCMSG;
#X obj 1715 195 routeOSC /delay_amp;
#X obj 1541 198 routeOSC /master_vol;
#X obj 1541 227 send master_vol;
#X obj 1256 246 send gate;
#X obj 1256 216 routeOSC /gate;
#X obj 1247 326 receive OSCMSG;
#X obj 1122 188 receive OSCMSG;
#X obj 1123 216 routeOSC /ar_time;
#X obj 1123 250 send ar_time;
#X obj 1334 361 routeOSC /lp_co /lp_mix /bp_mix /bp_width /bp_pos;
#X obj 544 561 mtof;
#X obj 102 590 mtof;
#X obj 186 164 mtof;
#X obj 65 163 mtof;
#X obj 32 226 expr~ $v1 > 0.5;
#X obj 138 224 expr~ $v1 > 0.5;
#X obj 283 1270 *~ 1;
#X obj 283 1234 *~ 1;
#X obj 273 1170 receive~ delay;
#X obj 287 1314 send~ afterdelay;
#X obj 850 1193 receive~ afterdelay;
#X obj 846 1019 send~ delay;
#X obj 342 1072 send~ toeffects;
#X obj 846 952 receive~ toeffects;
#X connect 0 0 78 0;
#X connect 1 0 2 1;
#X connect 2 0 5 0;
#X connect 3 0 5 0;
#X connect 4 0 3 1;
#X connect 5 0 11 0;
#X connect 6 0 0 0;
#X connect 7 0 1 0;
#X connect 8 0 4 0;
#X connect 9 0 77 0;
#X connect 10 0 9 0;
#X connect 11 0 14 0;
#X connect 11 0 15 0;
#X connect 12 0 14 1;
#X connect 13 0 76 0;
#X connect 14 0 20 0;
#X connect 15 0 21 0;
#X connect 16 0 20 1;
#X connect 17 0 21 1;
#X connect 18 0 16 0;
#X connect 19 0 17 0;
#X connect 20 0 28 0;
#X connect 21 0 28 0;
#X connect 22 0 15 1;
#X connect 23 0 15 2;
#X connect 24 0 75 0;
#X connect 25 0 23 0;
#X connect 26 0 27 0;
#X connect 27 0 28 1;
#X connect 28 0 87 0;
#X connect 30 0 33 0;
#X connect 31 0 5 1;
#X connect 32 0 33 1;
#X connect 33 0 31 0;
#X connect 34 0 57 0;
#X connect 42 0 80 0;
#X connect 43 0 44 0;
#X connect 44 0 45 0;
#X connect 44 0 81 0;
#X connect 46 0 44 1;
#X connect 47 0 46 0;
#X connect 49 0 79 0;
#X connect 50 0 34 0;
#X connect 51 0 35 0;
#X connect 52 0 36 0;
#X connect 53 0 54 0;
#X connect 55 0 56 0;
#X connect 58 0 51 0;
#X connect 59 0 52 0;
#X connect 60 0 55 0;
#X connect 61 0 66 0;
#X connect 62 0 53 0;
#X connect 63 0 69 0;
#X connect 64 0 65 0;
#X connect 65 0 48 0;
#X connect 66 0 67 0;
#X connect 69 0 68 0;
#X connect 70 0 74 0;
#X connect 71 0 72 0;
#X connect 72 0 73 0;
#X connect 74 0 37 0;
#X connect 74 1 40 0;
#X connect 74 2 41 0;
#X connect 74 3 39 0;
#X connect 74 4 38 0;
#X connect 75 0 22 0;
#X connect 76 0 12 0;
#X connect 77 0 42 0;
#X connect 78 0 49 0;
#X connect 79 0 2 0;
#X connect 80 0 3 0;
#X connect 81 0 84 0;
#X connect 82 0 45 0;
#X connect 82 0 81 0;
#X connect 83 0 82 0;
#X connect 85 0 29 0;
#X connect 85 0 29 1;
#X connect 88 0 86 0;
